<mxfile modified="2024-04-03T14:18:47.671Z" etag="a_zJ0v-ivLSQPb-MF-as" host="app.diagrams.net" agent="Mozilla/5.0 (Macintosh; Intel Mac OS X 10.15; rv:123.0) Gecko/20100101 Firefox/123.0" version="23.1.5" type="device">
  <diagram name="LISA Chat Architecture" id="_Cilr8O4TzJQHuwEjB_N">
    <mxGraphModel dx="1306" dy="2537" grid="1" gridSize="10" guides="1" tooltips="1" connect="1" arrows="1" fold="1" page="1" pageScale="1" pageWidth="1100" pageHeight="850" math="0" shadow="0">
      <root>
        <mxCell id="0" />
        <mxCell id="1" parent="0" />
        <mxCell id="s7di889UlQwgIvgSL57G-2" value="" style="rounded=0;whiteSpace=wrap;html=1;fillColor=none;dashed=1;" parent="1" vertex="1">
          <mxGeometry x="550" y="-1070" width="620" height="510" as="geometry" />
        </mxCell>
        <mxCell id="DWK700BzobpO67FnPDNL-6" style="edgeStyle=orthogonalEdgeStyle;rounded=0;orthogonalLoop=1;jettySize=auto;html=1;entryX=0.441;entryY=1.017;entryDx=0;entryDy=0;entryPerimeter=0;" parent="1" source="s7di889UlQwgIvgSL57G-5" target="DWK700BzobpO67FnPDNL-5" edge="1">
          <mxGeometry relative="1" as="geometry" />
        </mxCell>
        <mxCell id="s7di889UlQwgIvgSL57G-5" value="Chat User" style="sketch=0;outlineConnect=0;fontColor=#000000;gradientColor=none;strokeColor=#232F3E;fillColor=#ffffff;dashed=0;verticalLabelPosition=bottom;verticalAlign=top;align=center;html=1;fontSize=12;fontStyle=0;aspect=fixed;shape=mxgraph.aws4.resourceIcon;resIcon=mxgraph.aws4.user;" parent="1" vertex="1">
          <mxGeometry x="295" y="-660" width="60" height="60" as="geometry" />
        </mxCell>
        <mxCell id="s7di889UlQwgIvgSL57G-80" value="AWS Cloud" style="text;html=1;align=center;verticalAlign=middle;resizable=0;points=[];autosize=1;strokeColor=none;fillColor=none;" parent="1" vertex="1">
          <mxGeometry x="550" y="-1070" width="90" height="30" as="geometry" />
        </mxCell>
        <mxCell id="s7di889UlQwgIvgSL57G-279" style="edgeStyle=orthogonalEdgeStyle;rounded=0;orthogonalLoop=1;jettySize=auto;html=1;" parent="1" source="s7di889UlQwgIvgSL57G-5" target="DWK700BzobpO67FnPDNL-7" edge="1">
          <mxGeometry relative="1" as="geometry">
            <mxPoint x="520" y="-773" as="targetPoint" />
          </mxGeometry>
        </mxCell>
        <mxCell id="s7di889UlQwgIvgSL57G-75" value="React SPA" style="sketch=0;points=[[0,0,0],[0.25,0,0],[0.5,0,0],[0.75,0,0],[1,0,0],[0,1,0],[0.25,1,0],[0.5,1,0],[0.75,1,0],[1,1,0],[0,0.25,0],[0,0.5,0],[0,0.75,0],[1,0.25,0],[1,0.5,0],[1,0.75,0]];outlineConnect=0;fontColor=#000000;gradientColor=none;gradientDirection=north;fillColor=#ff8000;strokeColor=#ffffff;dashed=0;verticalLabelPosition=bottom;verticalAlign=top;align=center;html=1;fontSize=12;fontStyle=0;aspect=fixed;shape=mxgraph.aws4.resourceIcon;resIcon=mxgraph.aws4.s3;" parent="1" vertex="1">
          <mxGeometry x="832" y="-1029" width="75" height="75" as="geometry" />
        </mxCell>
        <mxCell id="DWK700BzobpO67FnPDNL-8" style="edgeStyle=orthogonalEdgeStyle;rounded=0;orthogonalLoop=1;jettySize=auto;html=1;" parent="1" source="DWK700BzobpO67FnPDNL-5" target="DWK700BzobpO67FnPDNL-7" edge="1">
          <mxGeometry relative="1" as="geometry">
            <Array as="points">
              <mxPoint x="440" y="-970" />
            </Array>
          </mxGeometry>
        </mxCell>
        <mxCell id="DWK700BzobpO67FnPDNL-5" value="OIDC IdP" style="image;aspect=fixed;html=1;points=[];align=center;fontSize=12;image=img/lib/azure2/other/SSH_Keys.svg;labelBackgroundColor=none;fontColor=#000000;" parent="1" vertex="1">
          <mxGeometry x="295" y="-1029" width="68" height="60" as="geometry" />
        </mxCell>
        <mxCell id="DWK700BzobpO67FnPDNL-22" style="edgeStyle=orthogonalEdgeStyle;rounded=0;orthogonalLoop=1;jettySize=auto;html=1;entryX=0;entryY=0.5;entryDx=0;entryDy=0;entryPerimeter=0;startArrow=classic;startFill=1;" parent="1" source="DWK700BzobpO67FnPDNL-7" target="DWK700BzobpO67FnPDNL-12" edge="1">
          <mxGeometry relative="1" as="geometry">
            <Array as="points">
              <mxPoint x="530" y="-790" />
              <mxPoint x="530" y="-636" />
            </Array>
          </mxGeometry>
        </mxCell>
        <mxCell id="DWK700BzobpO67FnPDNL-7" value="LISA Chat" style="sketch=0;aspect=fixed;pointerEvents=1;shadow=0;dashed=0;html=1;strokeColor=none;labelPosition=center;verticalLabelPosition=bottom;verticalAlign=top;align=center;fillColor=#00188D;shape=mxgraph.azure.laptop" parent="1" vertex="1">
          <mxGeometry x="390" y="-839" width="100" height="60" as="geometry" />
        </mxCell>
        <mxCell id="DWK700BzobpO67FnPDNL-12" value="LISA Serve REST API" style="outlineConnect=0;dashed=0;verticalLabelPosition=bottom;verticalAlign=top;align=center;html=1;shape=mxgraph.aws3.application_load_balancer;fillColor=#F58534;gradientColor=none;" parent="1" vertex="1">
          <mxGeometry x="624.5" y="-672" width="69" height="72" as="geometry" />
        </mxCell>
        <mxCell id="DWK700BzobpO67FnPDNL-19" value="Authorizer" style="sketch=0;points=[[0,0,0],[0.25,0,0],[0.5,0,0],[0.75,0,0],[1,0,0],[0,1,0],[0.25,1,0],[0.5,1,0],[0.75,1,0],[1,1,0],[0,0.25,0],[0,0.5,0],[0,0.75,0],[1,0.25,0],[1,0.5,0],[1,0.75,0]];outlineConnect=0;fontColor=#000000;fillColor=#ED7100;strokeColor=#ffffff;dashed=0;verticalLabelPosition=bottom;verticalAlign=top;align=center;html=1;fontSize=12;fontStyle=0;aspect=fixed;shape=mxgraph.aws4.resourceIcon;resIcon=mxgraph.aws4.lambda;" parent="1" vertex="1">
          <mxGeometry x="620" y="-870" width="78" height="78" as="geometry" />
        </mxCell>
        <mxCell id="DWK700BzobpO67FnPDNL-29" value="Session Store DynamoDB" style="outlineConnect=0;dashed=0;verticalLabelPosition=bottom;verticalAlign=top;align=center;html=1;shape=mxgraph.aws3.dynamo_db;fillColor=#2E73B8;gradientColor=none;" parent="1" vertex="1">
          <mxGeometry x="1040" y="-881.5" width="72" height="81" as="geometry" />
        </mxCell>
        <mxCell id="DWK700BzobpO67FnPDNL-32" style="edgeStyle=orthogonalEdgeStyle;rounded=0;orthogonalLoop=1;jettySize=auto;html=1;entryX=0;entryY=0.5;entryDx=0;entryDy=0;entryPerimeter=0;startArrow=block;startFill=1;" parent="1" source="DWK700BzobpO67FnPDNL-30" target="DWK700BzobpO67FnPDNL-29" edge="1">
          <mxGeometry relative="1" as="geometry" />
        </mxCell>
        <mxCell id="DWK700BzobpO67FnPDNL-30" value="&lt;div&gt;Chat Session&amp;nbsp;&lt;/div&gt;&lt;div&gt;Functions&lt;/div&gt;" style="sketch=0;points=[[0,0,0],[0.25,0,0],[0.5,0,0],[0.75,0,0],[1,0,0],[0,1,0],[0.25,1,0],[0.5,1,0],[0.75,1,0],[1,1,0],[0,0.25,0],[0,0.5,0],[0,0.75,0],[1,0.25,0],[1,0.5,0],[1,0.75,0]];outlineConnect=0;fontColor=#000000;fillColor=#ED7100;strokeColor=#ffffff;dashed=0;verticalLabelPosition=bottom;verticalAlign=top;align=center;html=1;fontSize=12;fontStyle=0;aspect=fixed;shape=mxgraph.aws4.resourceIcon;resIcon=mxgraph.aws4.lambda;" parent="1" vertex="1">
          <mxGeometry x="832" y="-880" width="78" height="78" as="geometry" />
        </mxCell>
        <mxCell id="DWK700BzobpO67FnPDNL-39" style="edgeStyle=orthogonalEdgeStyle;rounded=0;orthogonalLoop=1;jettySize=auto;html=1;exitX=1;exitY=0.5;exitDx=0;exitDy=0;exitPerimeter=0;startArrow=classic;startFill=1;" parent="1" source="DWK700BzobpO67FnPDNL-33" target="DWK700BzobpO67FnPDNL-35" edge="1">
          <mxGeometry relative="1" as="geometry" />
        </mxCell>
        <mxCell id="DWK700BzobpO67FnPDNL-33" value="RAG &lt;br&gt;&lt;div&gt;Functions&lt;/div&gt;" style="sketch=0;points=[[0,0,0],[0.25,0,0],[0.5,0,0],[0.75,0,0],[1,0,0],[0,1,0],[0.25,1,0],[0.5,1,0],[0.75,1,0],[1,1,0],[0,0.25,0],[0,0.5,0],[0,0.75,0],[1,0.25,0],[1,0.5,0],[1,0.75,0]];outlineConnect=0;fontColor=#000000;fillColor=#ED7100;strokeColor=#ffffff;dashed=0;verticalLabelPosition=bottom;verticalAlign=top;align=center;html=1;fontSize=12;fontStyle=0;aspect=fixed;shape=mxgraph.aws4.resourceIcon;resIcon=mxgraph.aws4.lambda;" parent="1" vertex="1">
          <mxGeometry x="832" y="-730" width="78" height="78" as="geometry" />
        </mxCell>
        <mxCell id="DWK700BzobpO67FnPDNL-35" value="Vector Store" style="image;html=1;image=img/lib/clip_art/computers/Database_128x128.png;labelBackgroundColor=none;" parent="1" vertex="1">
          <mxGeometry x="1040" y="-731" width="80" height="80" as="geometry" />
        </mxCell>
        <mxCell id="DWK700BzobpO67FnPDNL-10" value="&lt;div&gt;API Gateway&lt;br&gt;&lt;/div&gt;" style="sketch=0;points=[[0,0,0],[0.25,0,0],[0.5,0,0],[0.75,0,0],[1,0,0],[0,1,0],[0.25,1,0],[0.5,1,0],[0.75,1,0],[1,1,0],[0,0.25,0],[0,0.5,0],[0,0.75,0],[1,0.25,0],[1,0.5,0],[1,0.75,0]];outlineConnect=0;fontColor=#000000;fillColor=#ff8000;strokeColor=#ffffff;dashed=0;verticalLabelPosition=bottom;verticalAlign=top;align=center;html=1;fontSize=12;fontStyle=0;aspect=fixed;shape=mxgraph.aws4.resourceIcon;resIcon=mxgraph.aws4.api_gateway;gradientColor=none;" parent="1" vertex="1">
          <mxGeometry x="620" y="-1029" width="78" height="78" as="geometry" />
        </mxCell>
        <mxCell id="BcafGsnLgv01-lq6aq2q-4" style="edgeStyle=orthogonalEdgeStyle;rounded=0;orthogonalLoop=1;jettySize=auto;html=1;exitX=0;exitY=0.5;exitDx=0;exitDy=0;exitPerimeter=0;entryX=1;entryY=0.5;entryDx=0;entryDy=0;entryPerimeter=0;startArrow=classic;startFill=1;endArrow=none;endFill=0;" edge="1" parent="1" source="DWK700BzobpO67FnPDNL-30" target="DWK700BzobpO67FnPDNL-10">
          <mxGeometry relative="1" as="geometry" />
        </mxCell>
        <mxCell id="BcafGsnLgv01-lq6aq2q-5" style="edgeStyle=orthogonalEdgeStyle;rounded=0;orthogonalLoop=1;jettySize=auto;html=1;exitX=1;exitY=0.25;exitDx=0;exitDy=0;exitPerimeter=0;entryX=0;entryY=0.25;entryDx=0;entryDy=0;entryPerimeter=0;" edge="1" parent="1" source="DWK700BzobpO67FnPDNL-10" target="s7di889UlQwgIvgSL57G-75">
          <mxGeometry relative="1" as="geometry" />
        </mxCell>
        <mxCell id="BcafGsnLgv01-lq6aq2q-7" style="edgeStyle=orthogonalEdgeStyle;rounded=0;orthogonalLoop=1;jettySize=auto;html=1;entryX=0.5;entryY=1;entryDx=0;entryDy=0;entryPerimeter=0;" edge="1" parent="1" source="DWK700BzobpO67FnPDNL-12" target="DWK700BzobpO67FnPDNL-19">
          <mxGeometry relative="1" as="geometry" />
        </mxCell>
        <mxCell id="BcafGsnLgv01-lq6aq2q-8" style="edgeStyle=orthogonalEdgeStyle;rounded=0;orthogonalLoop=1;jettySize=auto;html=1;entryX=0.5;entryY=0;entryDx=0;entryDy=0;entryPerimeter=0;" edge="1" parent="1" source="DWK700BzobpO67FnPDNL-10" target="DWK700BzobpO67FnPDNL-19">
          <mxGeometry relative="1" as="geometry" />
        </mxCell>
        <mxCell id="BcafGsnLgv01-lq6aq2q-9" style="edgeStyle=orthogonalEdgeStyle;rounded=0;orthogonalLoop=1;jettySize=auto;html=1;exitX=0;exitY=0.5;exitDx=0;exitDy=0;exitPerimeter=0;entryX=1.015;entryY=0.483;entryDx=0;entryDy=0;entryPerimeter=0;" edge="1" parent="1" source="DWK700BzobpO67FnPDNL-19" target="DWK700BzobpO67FnPDNL-5">
          <mxGeometry relative="1" as="geometry" />
        </mxCell>
        <mxCell id="BcafGsnLgv01-lq6aq2q-10" style="edgeStyle=orthogonalEdgeStyle;rounded=0;orthogonalLoop=1;jettySize=auto;html=1;exitX=0.92;exitY=0.5;exitDx=0;exitDy=0;exitPerimeter=0;entryX=0;entryY=0.5;entryDx=0;entryDy=0;entryPerimeter=0;" edge="1" parent="1" source="DWK700BzobpO67FnPDNL-7" target="DWK700BzobpO67FnPDNL-10">
          <mxGeometry relative="1" as="geometry">
            <Array as="points">
              <mxPoint x="482" y="-810" />
              <mxPoint x="540" y="-810" />
              <mxPoint x="540" y="-990" />
            </Array>
          </mxGeometry>
        </mxCell>
        <mxCell id="BcafGsnLgv01-lq6aq2q-12" style="edgeStyle=orthogonalEdgeStyle;rounded=0;orthogonalLoop=1;jettySize=auto;html=1;exitX=1;exitY=0.75;exitDx=0;exitDy=0;exitPerimeter=0;entryX=0;entryY=0.5;entryDx=0;entryDy=0;entryPerimeter=0;" edge="1" parent="1" source="DWK700BzobpO67FnPDNL-10" target="DWK700BzobpO67FnPDNL-33">
          <mxGeometry relative="1" as="geometry">
            <Array as="points">
              <mxPoint x="740" y="-970" />
              <mxPoint x="740" y="-690" />
            </Array>
          </mxGeometry>
        </mxCell>
        <mxCell id="BcafGsnLgv01-lq6aq2q-13" style="edgeStyle=orthogonalEdgeStyle;rounded=0;orthogonalLoop=1;jettySize=auto;html=1;exitX=0.5;exitY=1;exitDx=0;exitDy=0;" edge="1" parent="1" source="s7di889UlQwgIvgSL57G-2" target="s7di889UlQwgIvgSL57G-2">
          <mxGeometry relative="1" as="geometry" />
        </mxCell>
      </root>
    </mxGraphModel>
  </diagram>
</mxfile>
